<svg xmlns="http://www.w3.org/2000/svg" width="25" height="24" fill="none"><path fill="#E8F0F1" fill-rule="evenodd" d="M10.019 20h2.003v-6.2a1 1 0 0 1 1.002-1h2.244l.446-1.6h-2.69a1 1 0 0 1-1.002-1V7.5c0-1.048.899-1.9 2.004-1.9h2.004V4h-2.004c-2.21 0-4.007 1.57-4.007 3.5v2.7a1 1 0 0 1-1.002 1H7.013v1.6h2.004a1 1 0 0 1 1.002 1V20Zm3.005 2H9.017a1 1 0 0 1-1.002-1v-6.2H6.012a1 1 0 0 1-1.002-1v-3.6a1 1 0 0 1 1.002-1h2.003V7.5c0-3.032 2.696-5.5 6.011-5.5h3.005a1 1 0 0 1 1.002 1v3.6a1 1 0 0 1-1.002 1h-3.005v1.6h3.005a1.002 1.002 0 0 1 .966 1.268l-1.002 3.599c-.12.433-.516.733-.965.733h-2.004V21a1 1 0 0 1-1.002 1Z" clip-rule="evenodd"/><mask id="a" width="14" height="20" x="5" y="2" maskUnits="userSpaceOnUse" style="mask-type:luminance"><path fill="#fff" fill-rule="evenodd" d="M10.019 20h2.003v-6.2a1 1 0 0 1 1.002-1h2.244l.446-1.6h-2.69a1 1 0 0 1-1.002-1V7.5c0-1.048.899-1.9 2.004-1.9h2.004V4h-2.004c-2.21 0-4.007 1.57-4.007 3.5v2.7a1 1 0 0 1-1.002 1H7.013v1.6h2.004a1 1 0 0 1 1.002 1V20Zm3.005 2H9.017a1 1 0 0 1-1.002-1v-6.2H6.012a1 1 0 0 1-1.002-1v-3.6a1 1 0 0 1 1.002-1h2.003V7.5c0-3.032 2.696-5.5 6.011-5.5h3.005a1 1 0 0 1 1.002 1v3.6a1 1 0 0 1-1.002 1h-3.005v1.6h3.005a1.002 1.002 0 0 1 .966 1.268l-1.002 3.599c-.12.433-.516.733-.965.733h-2.004V21a1 1 0 0 1-1.002 1Z" clip-rule="evenodd"/></mask></svg>