<svg xmlns="http://www.w3.org/2000/svg" width="23" height="22" fill="none"><g clip-path="url(#a)"><path fill="#E8F0F1" d="M11.237 22h-.22a76.768 76.768 0 0 1-4.876-.134c-1.423-.087-2.722-.578-3.757-1.42-.998-.813-1.68-1.912-2.027-3.266-.3-1.179-.317-2.336-.332-3.455C.014 12.92.002 11.97 0 11.002c.002-.972.014-1.924.025-2.727C.04 7.156.056 6 .357 4.82c.347-1.355 1.029-2.453 2.027-3.266C3.419.712 4.718.22 6.141.134A76.925 76.925 0 0 1 11.021 0c1.729-.003 3.324.04 4.877.134 1.423.087 2.722.578 3.757 1.42.998.813 1.68 1.911 2.026 3.266.302 1.179.318 2.336.333 3.455.011.803.023 1.755.025 2.723v.004c-.002.968-.014 1.92-.025 2.723-.015 1.119-.031 2.276-.333 3.455-.346 1.354-1.027 2.453-2.026 3.266-1.035.842-2.334 1.333-3.757 1.42-1.487.09-3.014.134-4.661.134Zm-.22-1.72c1.7.005 3.26-.038 4.776-.13 1.076-.065 2.01-.414 2.774-1.036.706-.575 1.193-1.369 1.446-2.359.25-.981.265-2.035.28-3.054.01-.798.022-1.743.024-2.701a241.07 241.07 0 0 0-.025-2.701c-.014-1.02-.028-2.073-.279-3.055-.253-.99-.74-1.783-1.446-2.358-.765-.622-1.698-.97-2.774-1.036a75.357 75.357 0 0 0-4.772-.131 75.16 75.16 0 0 0-4.775.13c-1.076.066-2.01.415-2.774 1.037-.706.575-1.193 1.369-1.446 2.358-.251.982-.265 2.036-.28 3.055-.01.798-.022 1.744-.024 2.703.002.955.014 1.9.025 2.7.014 1.018.028 2.072.279 3.053.253.99.74 1.784 1.446 2.359.765.622 1.698.97 2.774 1.036 1.516.092 3.077.135 4.771.13Zm-.04-3.909c-2.968 0-5.381-2.41-5.381-5.371 0-2.962 2.413-5.371 5.38-5.371s5.381 2.41 5.381 5.37c0 2.963-2.414 5.372-5.38 5.372Zm0-9.023A3.66 3.66 0 0 0 7.316 11a3.66 3.66 0 0 0 7.318 0 3.66 3.66 0 0 0-3.659-3.652ZM16.96 3.91A1.29 1.29 0 1 0 18.25 5.2a1.29 1.29 0 0 0-1.291-1.29Z"/></g><defs><clipPath id="a"><path fill="#fff" d="M0 0h22.04v22H0z"/></clipPath></defs></svg>