<svg xmlns="http://www.w3.org/2000/svg" width="24" height="23" fill="none"><g fill="#E8F0F1" fill-rule="evenodd" stroke="#E8F0F1" stroke-miterlimit="22.926" stroke-width=".265" clip-path="url(#a)" clip-rule="evenodd"><path d="M6.06 7.145H.018V22.98H6.06V7.145ZM1.014 8.166h4.014v13.768H1.014V8.166ZM13.003 14.314v7.602H9.05V8.176h3.954v2.428c.401-.11 1.905-3.187 5.393-2.245.99.267 1.877.872 2.458 1.571.598.72 1.136 1.908 1.136 2.918v9.069h-3.954v-7.695c0-1.305-1.192-2.473-2.292-2.473-.831 0-1.453.123-2.056.79a2.706 2.706 0 0 0-.685 1.775ZM8.016 22.97h6.02v-8.702c0-.76.673-1.466 1.304-1.466.48 0 .829.007 1.243.428.168.17.42.627.42.946v8.794h6.02V12.802c0-1.162-.64-2.64-1.36-3.514-1.286-1.558-3.424-2.43-5.534-2.048-1.19.216-1.88.833-2.092.89 0-.433.086-1.007-.135-1.007H8.016V22.97ZM3.073 5.109c-.255 0-.592-.074-.79-.156-.287-.119-.362-.192-.585-.367-.81-.64-.915-2.112-.058-2.954l.047-.043.397-.283c.6-.302 1.253-.332 1.86-.016 1.097.574 1.485 2.18.489 3.189-.345.35-.823.63-1.36.63ZM.018 2.956c0 1.385.58 2.307 1.766 2.916.753.387 1.669.355 2.426.03.32-.139.663-.389.917-.623.102-.094.078-.1.162-.202 1.05-1.281.97-3.03-.07-4.08C4.93.705 4.758.54 4.377.346 3.566-.07 2.51-.102 1.695.315a3.546 3.546 0 0 0-.836.613 3.32 3.32 0 0 0-.567.842c-.143.343-.274.708-.274 1.186Z"/></g><defs><clipPath id="a"><path fill="#fff" d="M0 0h23.041v23H0z"/></clipPath></defs></svg>