<svg xmlns="http://www.w3.org/2000/svg" width="150" height="27" fill="none"><path fill="#59C154" d="M26.615 13.264v3.08c0 5.696-.8 8.482-3.782 9.718h-.023c-.97.414-2.134.657-3.613.777h-.025c-.944.097-1.986.122-3.174.122h-5.38C1.89 26.96 0 25.093 0 16.344v-3.08c0-1.841 1.285-3.683 3.854-6.254l3.175-3.15c5.042-5.018 7.248-5.139 12.143-.388l.025.025c.12.097.268.242.389.363l3.247 3.247c2.522 2.522 3.782 4.34 3.782 6.157Z"/><path fill="#fff" d="M12.216 21.168c-1.576 0-4.8-1.166-4.8-4.775 0-3.638 3.224-4.8 4.8-4.8 2.522 0 4.533 1.77 5.72 4.8-1.187 3.004-3.198 4.775-5.72 4.775ZM22.809 7.084 19.585 3.86a5.447 5.447 0 0 0-.389-.363l-.024-.024V8.37c.024 1.987.486 3.465.8 4.265-.193-.388-.507-.92-.92-1.479-1.964-2.253-4.436-3.199-6.836-3.199-3.514 0-8.435 2.617-8.435 8.436 0 5.817 4.921 8.433 8.435 8.433 2.4 0 4.872-.969 6.835-3.198.414-.581.728-1.093.922-1.48-.315.778-.777 2.256-.801 4.267v2.425h.024c1.48-.12 2.643-.363 3.613-.778v-1.647c0-3.004-.388-5.745-1.092-8.022.704-2.279 1.092-5.043 1.092-8.023V7.084Z"/><mask id="a" width="116" height="21" x="34" y="3" maskUnits="userSpaceOnUse" style="mask-type:alpha"><path fill="#fff" d="M65.64 3.874c1.29 0 2.44.142 3.448.429 1.01.287 1.861.698 2.555 1.232a5.29 5.29 0 0 1 1.584 1.944c.36.761.542 1.618.542 2.571h-4.077c0-.445-.087-.848-.261-1.207a2.496 2.496 0 0 0-.768-.918c-.34-.253-.757-.448-1.253-.587-.498-.137-1.07-.206-1.721-.206-.578 0-1.106.054-1.584.16-.477.108-.885.261-1.227.46-.342.199-.609.436-.798.711-.19.276-.286.582-.286.919 0 .396.118.719.351.971.235.25.545.457.93.615.387.16.824.288 1.311.385.489.097.985.186 1.492.27l1.216.198a80.88 80.88 0 0 1 1.58.276c.551.103 1.098.238 1.637.41.541.17 1.057.385 1.547.64.49.258.922.577 1.298.964.375.387.673.848.894 1.385.22.538.33 1.173.33 1.906 0 .91-.181 1.717-.545 2.422-.365.706-.9 1.301-1.608 1.788-.71.484-1.585.854-2.626 1.107-1.042.253-2.241.382-3.598.382-1.415 0-2.663-.14-3.738-.42-1.074-.278-1.973-.687-2.695-1.222a5.158 5.158 0 0 1-1.63-1.987c-.364-.784-.544-1.685-.544-2.7h4.076c0 .983.37 1.737 1.108 2.264.739.525 1.87.788 3.399.788.678 0 1.285-.05 1.824-.156a4.96 4.96 0 0 0 1.363-.454c.373-.2.657-.445.852-.738a1.74 1.74 0 0 0 .293-.999 1.74 1.74 0 0 0-.164-.777 1.79 1.79 0 0 0-.469-.583 2.824 2.824 0 0 0-.713-.43 7.183 7.183 0 0 0-.91-.315A13.54 13.54 0 0 0 67 15.129a53.613 53.613 0 0 0-1.146-.207l-1.223-.207c-.344-.06-.704-.127-1.08-.2a21.967 21.967 0 0 1-1.15-.25 12.474 12.474 0 0 1-1.153-.348 7.667 7.667 0 0 1-1.092-.484 5.882 5.882 0 0 1-.963-.649 4.043 4.043 0 0 1-.77-.852 4.015 4.015 0 0 1-.511-1.096 4.683 4.683 0 0 1-.188-1.372c0-.86.18-1.635.543-2.324.36-.69.883-1.274 1.567-1.757.683-.483 1.514-.855 2.492-1.116.978-.263 2.084-.393 3.312-.393ZM80.46 22.602h-4.154V4.37h4.153v5.218a9.62 9.62 0 0 1 .85-2.427 6.614 6.614 0 0 1 1.336-1.794 5.386 5.386 0 0 1 1.779-1.113 6.047 6.047 0 0 1 2.17-.379c.82 0 1.561.138 2.22.417a4.93 4.93 0 0 1 1.726 1.223c.49.538.892 1.2 1.206 1.986.316.786.536 1.685.662 2.7.17-.998.436-1.889.797-2.672a7.008 7.008 0 0 1 1.343-1.988A5.478 5.478 0 0 1 96.39 4.3c.692-.285 1.45-.426 2.278-.426.95 0 1.789.185 2.527.558a5.056 5.056 0 0 1 1.86 1.625c.503.71.888 1.583 1.155 2.616.264 1.034.396 2.213.396 3.536v10.393h-4.151v-9.98c0-3.385-1.238-5.076-3.713-5.076-.662 0-1.254.118-1.78.355a3.492 3.492 0 0 0-1.32 1.037c-.361.456-.634 1.014-.825 1.675-.19.662-.285 1.42-.285 2.275v9.714h-4.15v-9.98c0-3.385-1.24-5.076-3.716-5.076-.659 0-1.254.118-1.777.355a3.514 3.514 0 0 0-1.324 1.037c-.357.456-.632 1.014-.822 1.675-.19.662-.284 1.42-.284 2.275v9.714ZM123.906 4.37h-4.15v9.717c0 .848-.105 1.606-.315 2.268-.21.664-.514 1.224-.912 1.68a3.935 3.935 0 0 1-1.468 1.039c-.581.237-1.238.355-1.978.355-2.74 0-4.108-1.694-4.108-5.078V4.37h-4.154v10.395c0 1.324.142 2.5.423 3.535.282 1.033.695 1.905 1.235 2.618a5.369 5.369 0 0 0 1.996 1.624c.784.372 1.681.56 2.69.56.849 0 1.632-.132 2.349-.393a5.867 5.867 0 0 0 1.913-1.147 6.828 6.828 0 0 0 1.433-1.844c.392-.727.691-1.556.896-2.49v5.375h4.15V4.37ZM145.108 8.206h-7.687v14.396h-4.351V8.206h-7.691V4.369h19.729v3.837Z"/><path fill="#fff" fill-rule="evenodd" d="M51.54 4.355h4.135c0 3.391-.47 6.534-1.24 9.125.77 2.59 1.24 5.734 1.24 9.122H51.54c.027-2.258.523-3.94.882-4.85a9.847 9.847 0 0 1-1.048 1.683c-2.232 2.562-5.045 3.636-7.773 3.636-3.97 0-9.593-2.974-9.593-9.591 0-6.616 5.623-9.593 9.593-9.593 2.728 0 5.54 1.075 7.773 3.638.497.663.827 1.24 1.048 1.681-.359-.882-.855-2.562-.882-4.85ZM38.143 13.48c0 4.135 3.666 5.456 5.458 5.456 2.894 0 5.154-2.01 6.506-5.456-1.352-3.419-3.612-5.458-6.506-5.458-1.792 0-5.458 1.35-5.458 5.458ZM147.358 5.412v1.78h.424v-.626H148a.49.49 0 0 1 .094.008.2.2 0 0 1 .129.078.625.625 0 0 1 .049.08l.221.46h.457l-.221-.491c-.077-.176-.186-.269-.326-.28a.62.62 0 0 0 .206-.04.453.453 0 0 0 .258-.246.49.49 0 0 0 .035-.19.49.49 0 0 0-.176-.388.636.636 0 0 0-.201-.108.875.875 0 0 0-.264-.037h-.903Zm1.037.732a.421.421 0 0 1-.233.056h-.38v-.41h.377c.105 0 .183.018.236.051a.165.165 0 0 1 .085.15.168.168 0 0 1-.085.153Z" clip-rule="evenodd"/><path fill="#fff" fill-rule="evenodd" d="M148.614 4.435a1.99 1.99 0 0 0-.517-.066 2.022 2.022 0 0 0-.988.257 1.89 1.89 0 0 0-.948 1.666 2.005 2.005 0 0 0 .255.976c.084.141.181.27.297.386a1.896 1.896 0 0 0 .846.485 2.023 2.023 0 0 0 1.036 0 1.872 1.872 0 0 0 1.147-.882 1.89 1.89 0 0 0 .19-.464 2.036 2.036 0 0 0 0-1.038 1.828 1.828 0 0 0-.478-.84 1.803 1.803 0 0 0-.386-.293 1.852 1.852 0 0 0-.454-.187Zm-.94.352c.131-.034.271-.052.42-.052a1.549 1.549 0 0 1 .778.2 1.381 1.381 0 0 1 .528.538c.065.111.113.235.146.368.034.133.05.274.05.421 0 .15-.016.294-.05.43a1.573 1.573 0 0 1-.386.698 1.538 1.538 0 0 1-.307.242 1.564 1.564 0 0 1-.786.208c-.142 0-.28-.018-.411-.054a1.458 1.458 0 0 1-.666-.388 1.518 1.518 0 0 1-.373-.686 1.633 1.633 0 0 1-.052-.424 1.644 1.644 0 0 1 .199-.802 1.438 1.438 0 0 1 .542-.548c.113-.065.233-.115.368-.15Z" clip-rule="evenodd"/></mask><g mask="url(#a)"><path fill="#E8F0F1" d="M65.64 3.874c1.29 0 2.44.142 3.448.429 1.01.287 1.861.698 2.555 1.232a5.29 5.29 0 0 1 1.584 1.944c.36.761.542 1.618.542 2.571h-4.077c0-.445-.087-.848-.261-1.207a2.496 2.496 0 0 0-.768-.918c-.34-.253-.757-.448-1.253-.587-.498-.137-1.07-.206-1.721-.206-.578 0-1.106.054-1.584.16-.477.108-.885.261-1.227.46-.342.199-.609.436-.798.711-.19.276-.286.582-.286.919 0 .396.118.719.351.971.235.25.545.457.93.615.387.16.824.288 1.311.385.489.097.985.186 1.492.27l1.216.198a80.88 80.88 0 0 1 1.58.276c.551.103 1.098.238 1.637.41.541.17 1.057.385 1.547.64.49.258.922.577 1.298.964.375.387.673.848.894 1.385.22.538.33 1.173.33 1.906 0 .91-.181 1.717-.545 2.422-.365.706-.9 1.301-1.608 1.788-.71.484-1.585.854-2.626 1.107-1.042.253-2.241.382-3.598.382-1.415 0-2.663-.14-3.738-.42-1.074-.278-1.973-.687-2.695-1.222a5.158 5.158 0 0 1-1.63-1.987c-.364-.784-.544-1.685-.544-2.7h4.076c0 .983.37 1.737 1.108 2.264.739.525 1.87.788 3.399.788.678 0 1.285-.05 1.824-.156a4.96 4.96 0 0 0 1.363-.454c.373-.2.657-.445.852-.738a1.74 1.74 0 0 0 .293-.999 1.74 1.74 0 0 0-.164-.777 1.79 1.79 0 0 0-.469-.583 2.824 2.824 0 0 0-.713-.43 7.183 7.183 0 0 0-.91-.315A13.54 13.54 0 0 0 67 15.129a53.613 53.613 0 0 0-1.146-.207l-1.223-.207c-.344-.06-.704-.127-1.08-.2a21.967 21.967 0 0 1-1.15-.25 12.474 12.474 0 0 1-1.153-.348 7.667 7.667 0 0 1-1.092-.484 5.882 5.882 0 0 1-.963-.649 4.043 4.043 0 0 1-.77-.852 4.015 4.015 0 0 1-.511-1.096 4.683 4.683 0 0 1-.188-1.372c0-.86.18-1.635.543-2.324.36-.69.883-1.274 1.567-1.757.683-.483 1.514-.855 2.492-1.116.978-.263 2.084-.393 3.312-.393ZM80.46 22.602h-4.154V4.37h4.153v5.218a9.62 9.62 0 0 1 .85-2.427 6.614 6.614 0 0 1 1.336-1.794 5.386 5.386 0 0 1 1.779-1.113 6.047 6.047 0 0 1 2.17-.379c.82 0 1.561.138 2.22.417a4.93 4.93 0 0 1 1.726 1.223c.49.538.892 1.2 1.206 1.986.316.786.536 1.685.662 2.7.17-.998.436-1.889.797-2.672a7.008 7.008 0 0 1 1.343-1.988A5.478 5.478 0 0 1 96.39 4.3c.692-.285 1.45-.426 2.278-.426.95 0 1.789.185 2.527.558a5.056 5.056 0 0 1 1.86 1.625c.503.71.888 1.583 1.155 2.616.264 1.034.396 2.213.396 3.536v10.393h-4.151v-9.98c0-3.385-1.238-5.076-3.713-5.076-.662 0-1.254.118-1.78.355a3.492 3.492 0 0 0-1.32 1.037c-.361.456-.634 1.014-.825 1.675-.19.662-.285 1.42-.285 2.275v9.714h-4.15v-9.98c0-3.385-1.24-5.076-3.716-5.076-.659 0-1.254.118-1.777.355a3.514 3.514 0 0 0-1.324 1.037c-.357.456-.632 1.014-.822 1.675-.19.662-.284 1.42-.284 2.275v9.714ZM123.906 4.37h-4.15v9.717c0 .848-.105 1.606-.315 2.268-.21.664-.514 1.224-.912 1.68a3.935 3.935 0 0 1-1.468 1.039c-.581.237-1.238.355-1.978.355-2.74 0-4.108-1.694-4.108-5.078V4.37h-4.154v10.395c0 1.324.142 2.5.423 3.535.282 1.033.695 1.905 1.235 2.618a5.369 5.369 0 0 0 1.996 1.624c.784.372 1.681.56 2.69.56.849 0 1.632-.132 2.349-.393a5.867 5.867 0 0 0 1.913-1.147 6.828 6.828 0 0 0 1.433-1.844c.392-.727.691-1.556.896-2.49v5.375h4.15V4.37ZM145.108 8.206h-7.687v14.396h-4.351V8.206h-7.691V4.369h19.729v3.837Z"/><path fill="#E8F0F1" fill-rule="evenodd" d="M51.54 4.355h4.135c0 3.391-.47 6.534-1.24 9.125.77 2.59 1.24 5.734 1.24 9.122H51.54c.027-2.258.523-3.94.882-4.85a9.847 9.847 0 0 1-1.048 1.683c-2.232 2.562-5.045 3.636-7.773 3.636-3.97 0-9.593-2.974-9.593-9.591 0-6.616 5.623-9.593 9.593-9.593 2.728 0 5.54 1.075 7.773 3.638.497.663.827 1.24 1.048 1.681-.359-.882-.855-2.562-.882-4.85ZM38.143 13.48c0 4.135 3.666 5.456 5.458 5.456 2.894 0 5.154-2.01 6.506-5.456-1.352-3.419-3.612-5.458-6.506-5.458-1.792 0-5.458 1.35-5.458 5.458ZM147.358 5.412v1.78h.424v-.626H148a.49.49 0 0 1 .094.008.2.2 0 0 1 .129.078.625.625 0 0 1 .049.08l.221.46h.457l-.221-.491c-.077-.176-.186-.269-.326-.28a.62.62 0 0 0 .206-.04.453.453 0 0 0 .258-.246.49.49 0 0 0 .035-.19.49.49 0 0 0-.176-.388.636.636 0 0 0-.201-.108.875.875 0 0 0-.264-.037h-.903Zm1.037.732a.421.421 0 0 1-.233.056h-.38v-.41h.377c.105 0 .183.018.236.051a.165.165 0 0 1 .085.15.168.168 0 0 1-.085.153Z" clip-rule="evenodd"/><path fill="#E8F0F1" fill-rule="evenodd" d="M148.614 4.435a1.99 1.99 0 0 0-.517-.066 2.022 2.022 0 0 0-.988.257 1.89 1.89 0 0 0-.948 1.666 2.005 2.005 0 0 0 .255.976c.084.141.181.27.297.386a1.896 1.896 0 0 0 .846.485 2.023 2.023 0 0 0 1.036 0 1.872 1.872 0 0 0 1.147-.882 1.89 1.89 0 0 0 .19-.464 2.036 2.036 0 0 0 0-1.038 1.828 1.828 0 0 0-.478-.84 1.803 1.803 0 0 0-.386-.293 1.852 1.852 0 0 0-.454-.187Zm-.94.352c.131-.034.271-.052.42-.052a1.549 1.549 0 0 1 .778.2 1.381 1.381 0 0 1 .528.538c.065.111.113.235.146.368.034.133.05.274.05.421 0 .15-.016.294-.05.43a1.573 1.573 0 0 1-.386.698 1.538 1.538 0 0 1-.307.242 1.564 1.564 0 0 1-.786.208c-.142 0-.28-.018-.411-.054a1.458 1.458 0 0 1-.666-.388 1.518 1.518 0 0 1-.373-.686 1.633 1.633 0 0 1-.052-.424 1.644 1.644 0 0 1 .199-.802 1.438 1.438 0 0 1 .542-.548c.113-.065.233-.115.368-.15Z" clip-rule="evenodd"/><g filter="url(#b)"><path fill="#E8F0F1" d="M41.872 13.012v6.597c0 12.203-1.717 18.171-8.119 20.82h-.05c-2.084.887-4.58 1.407-7.757 1.665h-.053c-2.028.207-4.266.26-6.816.26H7.525c-18.738 0-22.795-4.002-22.795-22.745v-6.597c0-3.945 2.758-7.892 8.274-13.398l6.817-6.75c10.825-10.75 15.562-11.008 26.072-.83l.053.053c.259.207.575.519.834.777l6.973 6.957c5.414 5.403 8.12 9.297 8.12 13.19Z"/></g></g><defs><filter id="b" width="1057.14" height="1057.76" x="-515.271" y="-515.404" color-interpolation-filters="sRGB" filterUnits="userSpaceOnUse"><feFlood flood-opacity="0" result="BackgroundImageFix"/><feBlend in="SourceGraphic" in2="BackgroundImageFix" result="shape"/><feGaussianBlur result="effect1_foregroundBlur_321_161" stdDeviation="250"/></filter></defs></svg>