<svg xmlns="http://www.w3.org/2000/svg" width="33" height="32" fill="none"><path fill="currentColor" d="m26.274 12.053-6.435-.56-2.512-5.933c-.453-1.08-1.995-1.08-2.447 0l-2.513 5.947-6.421.546c-1.17.094-1.649 1.56-.758 2.334l4.88 4.24-1.463 6.293c-.266 1.147.97 2.053 1.98 1.44l5.518-3.333 5.518 3.346c1.01.614 2.247-.293 1.98-1.44l-1.462-6.306 4.88-4.24c.89-.774.425-2.24-.745-2.334Zm-10.17 8.48-5 3.027 1.33-5.707-4.414-3.84 5.823-.506 2.26-5.374 2.274 5.387 5.823.507-4.414 3.84 1.33 5.706-5.013-3.04Z"/></svg>