<svg xmlns="http://www.w3.org/2000/svg" width="24" height="22" fill="none"><path fill="#A9B8B9" d="m22.2 7.294-6.454-.56L13.226.8c-.454-1.08-2-1.08-2.454 0l-2.52 5.947-6.44.547C.64 7.387.16 8.854 1.052 9.627l4.894 4.24-1.467 6.293c-.267 1.147.973 2.054 1.987 1.44l5.533-3.333 5.533 3.347c1.014.613 2.254-.294 1.987-1.44l-1.466-6.307 4.893-4.24c.893-.773.426-2.24-.747-2.333ZM12 15.774 6.985 18.8l1.333-5.706-4.427-3.84 5.84-.507L12 3.374l2.28 5.386 5.84.507-4.426 3.84 1.333 5.707-5.027-3.04Z"/></svg>